<svg width="999" height="300" viewBox="0 0 999 300" fill="none" xmlns="http://www.w3.org/2000/svg">
<rect width="999" height="300" fill="#FC6A01"/>
<path d="M312.469 200C310.125 200 308.953 198.711 308.953 196.133V103.039C308.953 100.461 310.125 99.1719 312.469 99.1719H346.43C359.977 99.1719 369.773 101.703 375.82 106.766C381.914 111.828 384.961 118.508 384.961 126.805C384.961 134.117 382.5 140.258 377.578 145.227C372.703 150.195 365.742 153.055 356.695 153.805V153.945C361.477 157.508 364.641 160.227 366.188 162.102C367.734 163.93 369.469 166.414 371.391 169.555L387.281 195.359C389.203 198.453 388.781 200 386.016 200H378C375.797 200 374.156 199.086 373.078 197.258L358.453 172.156C356.344 168.547 353.32 165.008 349.383 161.539C345.445 158.07 340.547 156.336 334.688 156.336H322.453V196.133C322.453 198.711 321.281 200 318.938 200H312.469ZM322.453 144.805H342.773C351.914 144.805 358.945 143.609 363.867 141.219C368.789 138.781 371.25 133.695 371.25 125.961C371.25 120.055 369 116.047 364.5 113.938C360 111.781 353.883 110.703 346.148 110.703H322.453V144.805ZM400.992 163.086C400.992 151.461 403.898 142.203 409.711 135.312C415.523 128.422 423.844 124.977 434.672 124.977C443.672 124.977 451.125 128.141 457.031 134.469C462.984 140.75 465.961 150.805 465.961 164.633C465.961 166.742 465 167.797 463.078 167.797H414.07C414.867 176.844 417.305 183.148 421.383 186.711C425.461 190.227 430.078 191.984 435.234 191.984C440.672 191.984 444.844 191.07 447.75 189.242C450.656 187.414 452.789 185.609 454.148 183.828C455.648 181.859 457.102 181.484 458.508 182.703L462.656 186.289C463.734 187.227 463.734 188.516 462.656 190.156C461.766 191.516 459.211 193.695 454.992 196.695C450.82 199.695 444.234 201.195 435.234 201.195C423.516 201.195 414.867 197.75 409.289 190.859C403.758 183.969 400.992 174.711 400.992 163.086ZM413.789 158.656H453.516C453.328 152.094 451.641 146.352 448.453 141.43C445.266 136.461 440.578 133.977 434.391 133.977C428.953 133.977 424.336 135.805 420.539 139.461C416.742 143.07 414.492 149.469 413.789 158.656ZM485.367 200C483.258 200 482.203 198.945 482.203 196.836V129.336C482.203 127.227 483.258 126.172 485.367 126.172H491.273C493.383 126.172 494.438 127.227 494.438 129.336V134.961H494.719C497.766 131.586 501.047 129.078 504.562 127.438C508.078 125.797 512.461 124.977 517.711 124.977C526.242 124.977 532.359 127.391 536.062 132.219C539.812 137 541.688 143.562 541.688 151.906V196.836C541.688 198.945 540.633 200 538.523 200H532.477C530.367 200 529.312 198.945 529.312 196.836V155.281C529.312 146.094 527.789 140.281 524.742 137.844C521.695 135.359 517.828 134.117 513.141 134.117C507.047 134.117 502.43 135.945 499.289 139.602C496.148 143.211 494.578 149.422 494.578 158.234V196.836C494.578 198.945 493.523 200 491.414 200H485.367ZM557.508 163.086C557.508 153.008 559.945 144.148 564.82 136.508C569.695 128.82 576.82 124.977 586.195 124.977C591.586 124.977 595.898 125.867 599.133 127.648C602.367 129.43 605.273 131.867 607.852 134.961H607.992C607.898 133.555 607.852 132.125 607.852 130.672V99.3828C607.852 97.2734 608.906 96.2188 611.016 96.2188H617.062C619.172 96.2188 620.227 97.2734 620.227 99.3828V196.836C620.227 198.945 619.172 200 617.062 200H611.156C609.469 200 608.555 198.945 608.414 196.836L607.992 191.211H607.852C605.273 194.305 602.367 196.742 599.133 198.523C595.898 200.305 591.586 201.195 586.195 201.195C576.82 201.195 569.695 197.375 564.82 189.734C559.945 182.047 557.508 173.164 557.508 163.086ZM570.586 163.086C570.586 171.711 572.062 178.695 575.016 184.039C578.016 189.383 583.078 192.055 590.203 192.055C595.266 192.055 599.461 190.344 602.789 186.922C606.164 183.453 607.852 178.203 607.852 171.172V155C607.852 147.969 606.164 142.742 602.789 139.32C599.461 135.852 595.266 134.117 590.203 134.117C583.078 134.117 578.016 136.789 575.016 142.133C572.062 147.477 570.586 154.461 570.586 163.086ZM636.258 163.086C636.258 151.461 639.164 142.203 644.977 135.312C650.789 128.422 659.109 124.977 669.938 124.977C678.938 124.977 686.391 128.141 692.297 134.469C698.25 140.75 701.227 150.805 701.227 164.633C701.227 166.742 700.266 167.797 698.344 167.797H649.336C650.133 176.844 652.57 183.148 656.648 186.711C660.727 190.227 665.344 191.984 670.5 191.984C675.938 191.984 680.109 191.07 683.016 189.242C685.922 187.414 688.055 185.609 689.414 183.828C690.914 181.859 692.367 181.484 693.773 182.703L697.922 186.289C699 187.227 699 188.516 697.922 190.156C697.031 191.516 694.477 193.695 690.258 196.695C686.086 199.695 679.5 201.195 670.5 201.195C658.781 201.195 650.133 197.75 644.555 190.859C639.023 183.969 636.258 174.711 636.258 163.086ZM649.055 158.656H688.781C688.594 152.094 686.906 146.352 683.719 141.43C680.531 136.461 675.844 133.977 669.656 133.977C664.219 133.977 659.602 135.805 655.805 139.461C652.008 143.07 649.758 149.469 649.055 158.656ZM714.656 105.219C712.266 101.188 713.367 99.1719 717.961 99.1719H730.266C732.703 99.1719 734.859 100.789 736.734 104.023L751.711 130.109C752.133 130.812 753.375 133.016 755.438 136.719C757.5 140.375 758.695 143.938 759.023 147.406H759.305C759.633 143.938 760.828 140.375 762.891 136.719C764.953 133.016 766.195 130.812 766.617 130.109L781.594 104.023C783.469 100.789 785.625 99.1719 788.062 99.1719H800.367C804.961 99.1719 806.062 101.188 803.672 105.219L769.43 163.086V196.133C769.43 198.711 767.789 200 764.508 200H753.82C750.539 200 748.898 198.711 748.898 196.133V163.086L714.656 105.219ZM798.047 163.086C798.047 151.133 801.117 141.758 807.258 134.961C813.445 128.164 822.633 124.766 834.82 124.766C847.008 124.766 856.172 128.164 862.312 134.961C868.5 141.758 871.594 151.133 871.594 163.086C871.594 175.039 868.5 184.414 862.312 191.211C856.172 198.008 847.008 201.406 834.82 201.406C822.633 201.406 813.445 198.008 807.258 191.211C801.117 184.414 798.047 175.039 798.047 163.086ZM818.859 163.086C818.859 171.992 820.219 178.32 822.938 182.07C825.703 185.773 829.664 187.625 834.82 187.625C839.977 187.625 843.914 185.773 846.633 182.07C849.398 178.32 850.781 171.992 850.781 163.086C850.781 154.18 849.398 147.875 846.633 144.172C843.914 140.422 839.977 138.547 834.82 138.547C829.664 138.547 825.703 140.422 822.938 144.172C820.219 147.875 818.859 154.18 818.859 163.086ZM886.641 169.344V130.391C886.641 127.578 888.047 126.172 890.859 126.172H902.109C904.922 126.172 906.328 127.578 906.328 130.391V164.281C906.328 174.5 907.031 180.945 908.438 183.617C909.844 186.289 912.797 187.625 917.297 187.625C922.078 187.625 925.711 185.727 928.195 181.93C930.68 178.086 931.922 170.141 931.922 158.094V130.391C931.922 127.578 933.328 126.172 936.141 126.172H947.391C950.203 126.172 951.609 127.578 951.609 130.391V195.781C951.609 198.594 950.203 200 947.391 200H936.281C933.469 200 932.062 198.594 932.062 195.781V191.703H931.781C929.625 195.406 926.883 197.961 923.555 199.367C920.227 200.727 916.289 201.406 911.742 201.406C904.57 201.406 898.594 199.109 893.812 194.516C889.031 189.922 886.641 181.531 886.641 169.344Z" fill="white"/>
<ellipse cx="153.5" cy="132.5" rx="103.5" ry="90.5" fill="white"/>
<ellipse cx="179.5" cy="140.5" rx="77.5" ry="82.5" fill="#FC6A01"/>
<path d="M170.652 239.65L133.753 139.945L63.4537 221.563L170.652 239.65Z" fill="white"/>
</svg>
